# xmcd
#
# Track frame offsets:
# 150
# 15633
# 28928
# 41276
# 58333
# 73578
# 91778
# 102899
# 117908
# 130563
# 143858
# 164192
# 178072
# 193287
#
# Disc length: 2762 seconds
#
#
# Revision: 0
# Processed by: cddbd v1.5.1PL0 Copyright (c) Steve Scherf et al.
# Submitted via: FreeRIP 2.931 
#
DISCID=c80ac80e
DTITLE=Polecat Creek - Salt Sea Bound
DYEAR=1900
DGENRE=Bluegrass
TTITLE0=Never Mind
TTITLE1=Surry Country's Burning
TTITLE2=Before
TTITLE3=Spirits Iin the Bottle Trees
TTITLE4=Salt Sea Bound
TTITLE5=Old Love
TTITLE6=March Winds goin' Blow My Blues
TTITLE7=The Bottom Land
TTITLE8=Bluebird
TTITLE9=Good Night
TTITLE10=Love Me Not
TTITLE11=Take Me Down
TTITLE12=There But for the TGrace of God Go I
TTITLE13=So Far So Good
EXTD=
EXTT0=
EXTT1=
EXTT2=
EXTT3=
EXTT4=
EXTT5=
EXTT6=
EXTT7=
EXTT8=
EXTT9=
EXTT10=
EXTT11=
EXTT12=
EXTT13=
PLAYORDER=
